solid OpenSCAD_Model
  facet normal -1 0 0
    outer loop
      vertex -14.859 -33.02 -6.5
      vertex -14.859 33.02 6.5
      vertex -14.859 33.02 -6.5
    endloop
  endfacet
  facet normal -1 -0 0
    outer loop
      vertex -14.859 33.02 6.5
      vertex -14.859 -33.02 -6.5
      vertex -14.859 -33.02 6.5
    endloop
  endfacet
  facet normal 0 0 1
    outer loop
      vertex 14.859 33.02 6.5
      vertex 13.716 30.48 6.5
      vertex 14.859 -33.02 6.5
    endloop
  endfacet
  facet normal 0 0 1
    outer loop
      vertex 14.859 33.02 6.5
      vertex -13.716 30.48 6.5
      vertex 13.716 30.48 6.5
    endloop
  endfacet
  facet normal 0 0 1
    outer loop
      vertex -13.716 30.48 6.5
      vertex -14.859 33.02 6.5
      vertex -13.716 -30.48 6.5
    endloop
  endfacet
  facet normal -0 0 1
    outer loop
      vertex -14.859 33.02 6.5
      vertex -13.716 30.48 6.5
      vertex 14.859 33.02 6.5
    endloop
  endfacet
  facet normal -0 0 1
    outer loop
      vertex 13.716 -30.48 6.5
      vertex 14.859 -33.02 6.5
      vertex 13.716 30.48 6.5
    endloop
  endfacet
  facet normal -0 0 1
    outer loop
      vertex -13.716 -30.48 6.5
      vertex 14.859 -33.02 6.5
      vertex 13.716 -30.48 6.5
    endloop
  endfacet
  facet normal 0 0 1
    outer loop
      vertex -13.716 -30.48 6.5
      vertex -14.859 -33.02 6.5
      vertex 14.859 -33.02 6.5
    endloop
  endfacet
  facet normal 0 0 1
    outer loop
      vertex -14.859 -33.02 6.5
      vertex -13.716 -30.48 6.5
      vertex -14.859 33.02 6.5
    endloop
  endfacet
  facet normal 1 0 0
    outer loop
      vertex 14.859 33.02 6.5
      vertex 14.859 6.5 -0.25
      vertex 14.859 33.02 -6.5
    endloop
  endfacet
  facet normal 1 0 0
    outer loop
      vertex 14.859 33.02 6.5
      vertex 14.859 -6.5 -0.25
      vertex 14.859 6.5 -0.25
    endloop
  endfacet
  facet normal 1 0 0
    outer loop
      vertex 14.859 -33.02 -6.5
      vertex 14.859 -6.5 -0.25
      vertex 14.859 -33.02 6.5
    endloop
  endfacet
  facet normal 1 -0 0
    outer loop
      vertex 14.859 -33.02 6.5
      vertex 14.859 -6.5 -0.25
      vertex 14.859 33.02 6.5
    endloop
  endfacet
  facet normal 1 -0 0
    outer loop
      vertex 14.859 6.5 -1.75
      vertex 14.859 33.02 -6.5
      vertex 14.859 6.5 -0.25
    endloop
  endfacet
  facet normal 1 -0 0
    outer loop
      vertex 14.859 -6.5 -1.75
      vertex 14.859 33.02 -6.5
      vertex 14.859 6.5 -1.75
    endloop
  endfacet
  facet normal 1 0 0
    outer loop
      vertex 14.859 -6.5 -1.75
      vertex 14.859 -33.02 -6.5
      vertex 14.859 33.02 -6.5
    endloop
  endfacet
  facet normal 1 0 0
    outer loop
      vertex 14.859 -6.5 -0.25
      vertex 14.859 -33.02 -6.5
      vertex 14.859 -6.5 -1.75
    endloop
  endfacet
  facet normal 0 1 -0
    outer loop
      vertex 14.859 33.02 -6.5
      vertex -14.859 33.02 6.5
      vertex 14.859 33.02 6.5
    endloop
  endfacet
  facet normal 0 1 0
    outer loop
      vertex -14.859 33.02 6.5
      vertex 14.859 33.02 -6.5
      vertex -14.859 33.02 -6.5
    endloop
  endfacet
  facet normal 0 0 -1
    outer loop
      vertex -14.859 -33.02 -6.5
      vertex 14.859 33.02 -6.5
      vertex 14.859 -33.02 -6.5
    endloop
  endfacet
  facet normal -0 0 -1
    outer loop
      vertex 14.859 33.02 -6.5
      vertex -14.859 -33.02 -6.5
      vertex -14.859 33.02 -6.5
    endloop
  endfacet
  facet normal 0 -1 0
    outer loop
      vertex -14.859 -33.02 6.5
      vertex -6 -33.02 3
      vertex 14.859 -33.02 6.5
    endloop
  endfacet
  facet normal 0 -1 0
    outer loop
      vertex -14.859 -33.02 -6.5
      vertex -6 -33.02 3
      vertex -14.859 -33.02 6.5
    endloop
  endfacet
  facet normal 0 -1 -0
    outer loop
      vertex -6 -33.02 -5
      vertex -14.859 -33.02 -6.5
      vertex 6 -33.02 -5
    endloop
  endfacet
  facet normal 0 -1 -0
    outer loop
      vertex -6 -33.02 3
      vertex -14.859 -33.02 -6.5
      vertex -6 -33.02 -5
    endloop
  endfacet
  facet normal 0 -1 0
    outer loop
      vertex 6 -33.02 3
      vertex 14.859 -33.02 6.5
      vertex -6 -33.02 3
    endloop
  endfacet
  facet normal 0 -1 0
    outer loop
      vertex 14.859 -33.02 -6.5
      vertex 6 -33.02 3
      vertex 6 -33.02 -5
    endloop
  endfacet
  facet normal 0 -1 0
    outer loop
      vertex 6 -33.02 3
      vertex 14.859 -33.02 -6.5
      vertex 14.859 -33.02 6.5
    endloop
  endfacet
  facet normal 0 -1 0
    outer loop
      vertex 14.859 -33.02 -6.5
      vertex 6 -33.02 -5
      vertex -14.859 -33.02 -6.5
    endloop
  endfacet
  facet normal 1 -0 0
    outer loop
      vertex -13.716 -30.48 6.5
      vertex -13.716 30.48 -4
      vertex -13.716 30.48 6.5
    endloop
  endfacet
  facet normal 1 0 0
    outer loop
      vertex -13.716 30.48 -4
      vertex -13.716 -30.48 6.5
      vertex -13.716 -30.48 -4
    endloop
  endfacet
  facet normal -1 0 0
    outer loop
      vertex 13.716 6.5 -0.25
      vertex 13.716 30.48 -4
      vertex 13.716 6.5 -1.75
    endloop
  endfacet
  facet normal -1 0 0
    outer loop
      vertex 13.716 30.48 -4
      vertex 13.716 -6.5 -1.75
      vertex 13.716 6.5 -1.75
    endloop
  endfacet
  facet normal -1 -0 0
    outer loop
      vertex 13.716 -6.5 -1.75
      vertex 13.716 -30.48 -4
      vertex 13.716 -6.5 -0.25
    endloop
  endfacet
  facet normal -1 0 0
    outer loop
      vertex 13.716 -30.48 -4
      vertex 13.716 -6.5 -1.75
      vertex 13.716 30.48 -4
    endloop
  endfacet
  facet normal -1 0 0
    outer loop
      vertex 13.716 30.48 -4
      vertex 13.716 6.5 -0.25
      vertex 13.716 30.48 6.5
    endloop
  endfacet
  facet normal -1 0 0
    outer loop
      vertex 13.716 -6.5 -0.25
      vertex 13.716 30.48 6.5
      vertex 13.716 6.5 -0.25
    endloop
  endfacet
  facet normal -1 0 0
    outer loop
      vertex 13.716 -30.48 6.5
      vertex 13.716 -6.5 -0.25
      vertex 13.716 -30.48 -4
    endloop
  endfacet
  facet normal -1 0 0
    outer loop
      vertex 13.716 -6.5 -0.25
      vertex 13.716 -30.48 6.5
      vertex 13.716 30.48 6.5
    endloop
  endfacet
  facet normal 0 0 1
    outer loop
      vertex 13.716 30.48 -4
      vertex 6 -26 -4
      vertex 13.716 -30.48 -4
    endloop
  endfacet
  facet normal 0 0 1
    outer loop
      vertex 13.716 30.48 -4
      vertex -6 -26 -4
      vertex 6 -26 -4
    endloop
  endfacet
  facet normal -0 0 1
    outer loop
      vertex -13.716 30.48 -4
      vertex -6 -26 -4
      vertex 13.716 30.48 -4
    endloop
  endfacet
  facet normal 0 0 1
    outer loop
      vertex -13.716 -30.48 -4
      vertex -6 -26 -4
      vertex -13.716 30.48 -4
    endloop
  endfacet
  facet normal 0 0 1
    outer loop
      vertex -6 -26 -4
      vertex -13.716 -30.48 -4
      vertex -6 -30.48 -4
    endloop
  endfacet
  facet normal 0 0 1
    outer loop
      vertex 13.716 -30.48 -4
      vertex 6 -26 -4
      vertex 6 -30.48 -4
    endloop
  endfacet
  facet normal 0 1 0
    outer loop
      vertex 13.716 -30.48 6.5
      vertex 6 -30.48 3
      vertex -13.716 -30.48 6.5
    endloop
  endfacet
  facet normal 0 1 -0
    outer loop
      vertex 13.716 -30.48 -4
      vertex 6 -30.48 3
      vertex 13.716 -30.48 6.5
    endloop
  endfacet
  facet normal 0 1 0
    outer loop
      vertex 6 -30.48 3
      vertex 13.716 -30.48 -4
      vertex 6 -30.48 -4
    endloop
  endfacet
  facet normal 0 1 -0
    outer loop
      vertex -6 -30.48 3
      vertex -13.716 -30.48 6.5
      vertex 6 -30.48 3
    endloop
  endfacet
  facet normal 0 1 0
    outer loop
      vertex -13.716 -30.48 -4
      vertex -6 -30.48 3
      vertex -6 -30.48 -4
    endloop
  endfacet
  facet normal 0 1 0
    outer loop
      vertex -6 -30.48 3
      vertex -13.716 -30.48 -4
      vertex -13.716 -30.48 6.5
    endloop
  endfacet
  facet normal 0 -1 0
    outer loop
      vertex -13.716 30.48 -4
      vertex 13.716 30.48 6.5
      vertex -13.716 30.48 6.5
    endloop
  endfacet
  facet normal 0 -1 -0
    outer loop
      vertex 13.716 30.48 6.5
      vertex -13.716 30.48 -4
      vertex 13.716 30.48 -4
    endloop
  endfacet
  facet normal 0 0 -1
    outer loop
      vertex 13.716 -6.5 -0.25
      vertex 14.859 6.5 -0.25
      vertex 14.859 -6.5 -0.25
    endloop
  endfacet
  facet normal -0 0 -1
    outer loop
      vertex 14.859 6.5 -0.25
      vertex 13.716 -6.5 -0.25
      vertex 13.716 6.5 -0.25
    endloop
  endfacet
  facet normal -0 0 1
    outer loop
      vertex 13.716 6.5 -1.75
      vertex 14.859 -6.5 -1.75
      vertex 14.859 6.5 -1.75
    endloop
  endfacet
  facet normal 0 0 1
    outer loop
      vertex 14.859 -6.5 -1.75
      vertex 13.716 6.5 -1.75
      vertex 13.716 -6.5 -1.75
    endloop
  endfacet
  facet normal 0 1 -0
    outer loop
      vertex 14.859 -6.5 -1.75
      vertex 13.716 -6.5 -0.25
      vertex 14.859 -6.5 -0.25
    endloop
  endfacet
  facet normal 0 1 0
    outer loop
      vertex 13.716 -6.5 -0.25
      vertex 14.859 -6.5 -1.75
      vertex 13.716 -6.5 -1.75
    endloop
  endfacet
  facet normal 0 -1 0
    outer loop
      vertex 13.716 6.5 -1.75
      vertex 14.859 6.5 -0.25
      vertex 13.716 6.5 -0.25
    endloop
  endfacet
  facet normal 0 -1 -0
    outer loop
      vertex 14.859 6.5 -0.25
      vertex 13.716 6.5 -1.75
      vertex 14.859 6.5 -1.75
    endloop
  endfacet
  facet normal 1 0 0
    outer loop
      vertex -6 -30.48 3
      vertex -6 -33.02 3
      vertex -6 -30.48 -4
    endloop
  endfacet
  facet normal 1 -0 0
    outer loop
      vertex -6 -30.48 -4
      vertex -6 -26 -5
      vertex -6 -26 -4
    endloop
  endfacet
  facet normal 1 0 0
    outer loop
      vertex -6 -30.48 -4
      vertex -6 -33.02 -5
      vertex -6 -26 -5
    endloop
  endfacet
  facet normal 1 0 0
    outer loop
      vertex -6 -33.02 -5
      vertex -6 -30.48 -4
      vertex -6 -33.02 3
    endloop
  endfacet
  facet normal 0 0 -1
    outer loop
      vertex -6 -33.02 3
      vertex 6 -30.48 3
      vertex 6 -33.02 3
    endloop
  endfacet
  facet normal -0 0 -1
    outer loop
      vertex 6 -30.48 3
      vertex -6 -33.02 3
      vertex -6 -30.48 3
    endloop
  endfacet
  facet normal -1 0 0
    outer loop
      vertex 6 -26 -5
      vertex 6 -30.48 -4
      vertex 6 -26 -4
    endloop
  endfacet
  facet normal -1 0 0
    outer loop
      vertex 6 -33.02 -5
      vertex 6 -30.48 -4
      vertex 6 -26 -5
    endloop
  endfacet
  facet normal -1 0 0
    outer loop
      vertex 6 -33.02 3
      vertex 6 -30.48 -4
      vertex 6 -33.02 -5
    endloop
  endfacet
  facet normal -1 0 0
    outer loop
      vertex 6 -30.48 -4
      vertex 6 -33.02 3
      vertex 6 -30.48 3
    endloop
  endfacet
  facet normal -0 0 1
    outer loop
      vertex -6 -26 -5
      vertex 6 -33.02 -5
      vertex 6 -26 -5
    endloop
  endfacet
  facet normal 0 0 1
    outer loop
      vertex 6 -33.02 -5
      vertex -6 -26 -5
      vertex -6 -33.02 -5
    endloop
  endfacet
  facet normal 0 -1 0
    outer loop
      vertex -6 -26 -5
      vertex 6 -26 -4
      vertex -6 -26 -4
    endloop
  endfacet
  facet normal 0 -1 -0
    outer loop
      vertex 6 -26 -4
      vertex -6 -26 -5
      vertex 6 -26 -5
    endloop
  endfacet
  facet normal 0.809017 0.587785 0
    outer loop
      vertex 12.43 -22.86 1
      vertex 11.739 -21.9089 -3
      vertex 11.739 -21.9089 1
    endloop
  endfacet
  facet normal 0.809017 0.587785 0
    outer loop
      vertex 11.739 -21.9089 -3
      vertex 12.43 -22.86 1
      vertex 12.43 -22.86 -3
    endloop
  endfacet
  facet normal -1 0 0
    outer loop
      vertex 10.621 -23.4478 -3
      vertex 10.621 -22.2722 1
      vertex 10.621 -22.2722 -3
    endloop
  endfacet
  facet normal -1 -0 0
    outer loop
      vertex 10.621 -22.2722 1
      vertex 10.621 -23.4478 -3
      vertex 10.621 -23.4478 1
    endloop
  endfacet
  facet normal -0.309016 0.951057 0
    outer loop
      vertex 11.739 -21.9089 -3
      vertex 10.621 -22.2722 1
      vertex 11.739 -21.9089 1
    endloop
  endfacet
  facet normal -0.309016 0.951057 0
    outer loop
      vertex 10.621 -22.2722 1
      vertex 11.739 -21.9089 -3
      vertex 10.621 -22.2722 -3
    endloop
  endfacet
  facet normal -0.309017 -0.951056 0
    outer loop
      vertex 10.621 -23.4478 -3
      vertex 11.739 -23.8111 1
      vertex 10.621 -23.4478 1
    endloop
  endfacet
  facet normal -0.309017 -0.951056 -0
    outer loop
      vertex 11.739 -23.8111 1
      vertex 10.621 -23.4478 -3
      vertex 11.739 -23.8111 -3
    endloop
  endfacet
  facet normal 0 0 -1
    outer loop
      vertex 11.739 -23.8111 -3
      vertex 11.739 -21.9089 -3
      vertex 12.43 -22.86 -3
    endloop
  endfacet
  facet normal 0 0 -1
    outer loop
      vertex 10.621 -23.4478 -3
      vertex 11.739 -21.9089 -3
      vertex 11.739 -23.8111 -3
    endloop
  endfacet
  facet normal 0 0 -1
    outer loop
      vertex 11.739 -21.9089 -3
      vertex 10.621 -23.4478 -3
      vertex 10.621 -22.2722 -3
    endloop
  endfacet
  facet normal 0 0 1
    outer loop
      vertex 11.739 -21.9089 1
      vertex 11.739 -23.8111 1
      vertex 12.43 -22.86 1
    endloop
  endfacet
  facet normal -0 0 1
    outer loop
      vertex 10.621 -22.2722 1
      vertex 11.739 -23.8111 1
      vertex 11.739 -21.9089 1
    endloop
  endfacet
  facet normal 0 0 1
    outer loop
      vertex 11.739 -23.8111 1
      vertex 10.621 -22.2722 1
      vertex 10.621 -23.4478 1
    endloop
  endfacet
  facet normal 0.809017 -0.587786 0
    outer loop
      vertex 11.739 -23.8111 1
      vertex 12.43 -22.86 -3
      vertex 12.43 -22.86 1
    endloop
  endfacet
  facet normal 0.809017 -0.587786 0
    outer loop
      vertex 12.43 -22.86 -3
      vertex 11.739 -23.8111 1
      vertex 11.739 -23.8111 -3
    endloop
  endfacet
  facet normal 0.809017 0.587785 0
    outer loop
      vertex -10.43 -22.86 1
      vertex -11.121 -21.9089 -3
      vertex -11.121 -21.9089 1
    endloop
  endfacet
  facet normal 0.809017 0.587785 0
    outer loop
      vertex -11.121 -21.9089 -3
      vertex -10.43 -22.86 1
      vertex -10.43 -22.86 -3
    endloop
  endfacet
  facet normal -1 0 0
    outer loop
      vertex -12.239 -23.4478 -3
      vertex -12.239 -22.2722 1
      vertex -12.239 -22.2722 -3
    endloop
  endfacet
  facet normal -1 -0 0
    outer loop
      vertex -12.239 -22.2722 1
      vertex -12.239 -23.4478 -3
      vertex -12.239 -23.4478 1
    endloop
  endfacet
  facet normal -0.309016 0.951057 0
    outer loop
      vertex -11.121 -21.9089 -3
      vertex -12.239 -22.2722 1
      vertex -11.121 -21.9089 1
    endloop
  endfacet
  facet normal -0.309016 0.951057 0
    outer loop
      vertex -12.239 -22.2722 1
      vertex -11.121 -21.9089 -3
      vertex -12.239 -22.2722 -3
    endloop
  endfacet
  facet normal 0 0 1
    outer loop
      vertex -11.121 -21.9089 1
      vertex -11.121 -23.8111 1
      vertex -10.43 -22.86 1
    endloop
  endfacet
  facet normal -0 0 1
    outer loop
      vertex -12.239 -22.2722 1
      vertex -11.121 -23.8111 1
      vertex -11.121 -21.9089 1
    endloop
  endfacet
  facet normal 0 0 1
    outer loop
      vertex -11.121 -23.8111 1
      vertex -12.239 -22.2722 1
      vertex -12.239 -23.4478 1
    endloop
  endfacet
  facet normal -0.309017 -0.951056 0
    outer loop
      vertex -12.239 -23.4478 -3
      vertex -11.121 -23.8111 1
      vertex -12.239 -23.4478 1
    endloop
  endfacet
  facet normal -0.309017 -0.951056 -0
    outer loop
      vertex -11.121 -23.8111 1
      vertex -12.239 -23.4478 -3
      vertex -11.121 -23.8111 -3
    endloop
  endfacet
  facet normal 0 0 -1
    outer loop
      vertex -11.121 -23.8111 -3
      vertex -11.121 -21.9089 -3
      vertex -10.43 -22.86 -3
    endloop
  endfacet
  facet normal 0 0 -1
    outer loop
      vertex -12.239 -23.4478 -3
      vertex -11.121 -21.9089 -3
      vertex -11.121 -23.8111 -3
    endloop
  endfacet
  facet normal 0 0 -1
    outer loop
      vertex -11.121 -21.9089 -3
      vertex -12.239 -23.4478 -3
      vertex -12.239 -22.2722 -3
    endloop
  endfacet
  facet normal 0.809017 -0.587786 0
    outer loop
      vertex -11.121 -23.8111 1
      vertex -10.43 -22.86 -3
      vertex -10.43 -22.86 1
    endloop
  endfacet
  facet normal 0.809017 -0.587786 0
    outer loop
      vertex -10.43 -22.86 -3
      vertex -11.121 -23.8111 1
      vertex -11.121 -23.8111 -3
    endloop
  endfacet
  facet normal 0.809017 0.587786 0
    outer loop
      vertex 12.43 22.86 1
      vertex 11.739 23.8111 -3
      vertex 11.739 23.8111 1
    endloop
  endfacet
  facet normal 0.809017 0.587786 0
    outer loop
      vertex 11.739 23.8111 -3
      vertex 12.43 22.86 1
      vertex 12.43 22.86 -3
    endloop
  endfacet
  facet normal -1 0 0
    outer loop
      vertex 10.621 22.2722 -3
      vertex 10.621 23.4478 1
      vertex 10.621 23.4478 -3
    endloop
  endfacet
  facet normal -1 -0 0
    outer loop
      vertex 10.621 23.4478 1
      vertex 10.621 22.2722 -3
      vertex 10.621 22.2722 1
    endloop
  endfacet
  facet normal -0.309017 0.951056 0
    outer loop
      vertex 11.739 23.8111 -3
      vertex 10.621 23.4478 1
      vertex 11.739 23.8111 1
    endloop
  endfacet
  facet normal -0.309017 0.951056 0
    outer loop
      vertex 10.621 23.4478 1
      vertex 11.739 23.8111 -3
      vertex 10.621 23.4478 -3
    endloop
  endfacet
  facet normal 0 0 1
    outer loop
      vertex 11.739 23.8111 1
      vertex 11.739 21.9089 1
      vertex 12.43 22.86 1
    endloop
  endfacet
  facet normal -0 0 1
    outer loop
      vertex 10.621 23.4478 1
      vertex 11.739 21.9089 1
      vertex 11.739 23.8111 1
    endloop
  endfacet
  facet normal 0 0 1
    outer loop
      vertex 11.739 21.9089 1
      vertex 10.621 23.4478 1
      vertex 10.621 22.2722 1
    endloop
  endfacet
  facet normal -0.309016 -0.951057 0
    outer loop
      vertex 10.621 22.2722 -3
      vertex 11.739 21.9089 1
      vertex 10.621 22.2722 1
    endloop
  endfacet
  facet normal -0.309016 -0.951057 -0
    outer loop
      vertex 11.739 21.9089 1
      vertex 10.621 22.2722 -3
      vertex 11.739 21.9089 -3
    endloop
  endfacet
  facet normal 0 0 -1
    outer loop
      vertex 11.739 21.9089 -3
      vertex 11.739 23.8111 -3
      vertex 12.43 22.86 -3
    endloop
  endfacet
  facet normal 0 0 -1
    outer loop
      vertex 10.621 22.2722 -3
      vertex 11.739 23.8111 -3
      vertex 11.739 21.9089 -3
    endloop
  endfacet
  facet normal 0 0 -1
    outer loop
      vertex 11.739 23.8111 -3
      vertex 10.621 22.2722 -3
      vertex 10.621 23.4478 -3
    endloop
  endfacet
  facet normal 0.809017 -0.587785 0
    outer loop
      vertex 11.739 21.9089 1
      vertex 12.43 22.86 -3
      vertex 12.43 22.86 1
    endloop
  endfacet
  facet normal 0.809017 -0.587785 0
    outer loop
      vertex 12.43 22.86 -3
      vertex 11.739 21.9089 1
      vertex 11.739 21.9089 -3
    endloop
  endfacet
  facet normal 0.809017 0.587786 0
    outer loop
      vertex -10.43 22.86 1
      vertex -11.121 23.8111 -3
      vertex -11.121 23.8111 1
    endloop
  endfacet
  facet normal 0.809017 0.587786 0
    outer loop
      vertex -11.121 23.8111 -3
      vertex -10.43 22.86 1
      vertex -10.43 22.86 -3
    endloop
  endfacet
  facet normal -1 0 0
    outer loop
      vertex -12.239 22.2722 -3
      vertex -12.239 23.4478 1
      vertex -12.239 23.4478 -3
    endloop
  endfacet
  facet normal -1 -0 0
    outer loop
      vertex -12.239 23.4478 1
      vertex -12.239 22.2722 -3
      vertex -12.239 22.2722 1
    endloop
  endfacet
  facet normal -0.309017 0.951056 0
    outer loop
      vertex -11.121 23.8111 -3
      vertex -12.239 23.4478 1
      vertex -11.121 23.8111 1
    endloop
  endfacet
  facet normal -0.309017 0.951056 0
    outer loop
      vertex -12.239 23.4478 1
      vertex -11.121 23.8111 -3
      vertex -12.239 23.4478 -3
    endloop
  endfacet
  facet normal 0 0 1
    outer loop
      vertex -11.121 23.8111 1
      vertex -11.121 21.9089 1
      vertex -10.43 22.86 1
    endloop
  endfacet
  facet normal -0 0 1
    outer loop
      vertex -12.239 23.4478 1
      vertex -11.121 21.9089 1
      vertex -11.121 23.8111 1
    endloop
  endfacet
  facet normal 0 0 1
    outer loop
      vertex -11.121 21.9089 1
      vertex -12.239 23.4478 1
      vertex -12.239 22.2722 1
    endloop
  endfacet
  facet normal -0.309016 -0.951057 0
    outer loop
      vertex -12.239 22.2722 -3
      vertex -11.121 21.9089 1
      vertex -12.239 22.2722 1
    endloop
  endfacet
  facet normal -0.309016 -0.951057 -0
    outer loop
      vertex -11.121 21.9089 1
      vertex -12.239 22.2722 -3
      vertex -11.121 21.9089 -3
    endloop
  endfacet
  facet normal 0 0 -1
    outer loop
      vertex -11.121 21.9089 -3
      vertex -11.121 23.8111 -3
      vertex -10.43 22.86 -3
    endloop
  endfacet
  facet normal 0 0 -1
    outer loop
      vertex -12.239 22.2722 -3
      vertex -11.121 23.8111 -3
      vertex -11.121 21.9089 -3
    endloop
  endfacet
  facet normal 0 0 -1
    outer loop
      vertex -11.121 23.8111 -3
      vertex -12.239 22.2722 -3
      vertex -12.239 23.4478 -3
    endloop
  endfacet
  facet normal 0.809017 -0.587785 0
    outer loop
      vertex -11.121 21.9089 1
      vertex -10.43 22.86 -3
      vertex -10.43 22.86 1
    endloop
  endfacet
  facet normal 0.809017 -0.587785 0
    outer loop
      vertex -10.43 22.86 -3
      vertex -11.121 21.9089 1
      vertex -11.121 21.9089 -3
    endloop
  endfacet
endsolid OpenSCAD_Model
